<svg xmlns="http://www.w3.org/2000/svg" xmlns:xlink="http://www.w3.org/1999/xlink" viewBox="0 0 516.08 438.07"><defs><style>.cls-1{fill:url(#_ÂÁ_Ï_ÌÌ_È_ËÂÌÚ_97);}.cls-2{fill:url(#_ÂÁ_Ï_ÌÌ_È_ËÂÌÚ_97-2);}.cls-3{fill:none;}.cls-4{isolation:isolate;}.cls-5{clip-path:url(#clip-path);}.cls-6{mask:url(#mask);}.cls-13,.cls-7{fill:#010101;mix-blend-mode:multiply;}.cls-7{opacity:0.5;}.cls-8{fill:url(#_ÂÁ_Ï_ÌÌ_È_ËÂÌÚ_7);}.cls-9{fill:url(#_ÂÁ_Ï_ÌÌ_È_ËÂÌÚ_8);}.cls-10{fill:#e5e5e5;}.cls-11{fill:url(#_ÂÁ_Ï_ÌÌ_È_ËÂÌÚ_2);}.cls-12{mask:url(#mask-2);}</style><radialGradient id="_ÂÁ_Ï_ÌÌ_È_ËÂÌÚ_97" cx="1226.78" cy="54802.17" r="422" gradientTransform="translate(-197.65 -2678.4) scale(0.43 0.06)" gradientUnits="userSpaceOnUse"><stop offset="0" stop-color="#fff"/><stop offset="0.08" stop-color="#d0d0d0"/><stop offset="0.17" stop-color="#a0a0a0"/><stop offset="0.26" stop-color="#757575"/><stop offset="0.36" stop-color="#515151"/><stop offset="0.46" stop-color="#343434"/><stop offset="0.57" stop-color="#1d1d1d"/><stop offset="0.69" stop-color="#0d0d0d"/><stop offset="0.82" stop-color="#040404"/><stop offset="1" stop-color="#010101"/></radialGradient><radialGradient id="_ÂÁ_Ï_ÌÌ_È_ËÂÌÚ_97-2" cx="835.21" cy="55200.88" r="318.18" xlink:href="#_ÂÁ_Ï_ÌÌ_È_ËÂÌÚ_97"/><clipPath id="clip-path"><rect class="cls-3" x="20.6" width="472.18" height="438.07"/></clipPath><mask id="mask" x="150.68" y="350.01" width="365.4" height="46.99" maskUnits="userSpaceOnUse"><ellipse class="cls-1" cx="333.38" cy="373.51" rx="182.7" ry="23.5"/></mask><linearGradient id="_ÂÁ_Ï_ÌÌ_È_ËÂÌÚ_7" x1="6882.76" y1="26.05" x2="6882.76" y2="18.54" gradientTransform="matrix(-1, 0, 0, 1, 7199.87, 0)" gradientUnits="userSpaceOnUse"><stop offset="0" stop-color="#e6e6e5"/><stop offset="0" stop-color="#ececeb"/><stop offset="0.01" stop-color="#f2f2f2"/><stop offset="0.02" stop-color="#f4f4f4"/><stop offset="0.65" stop-color="#f2f2f2"/><stop offset="0.88" stop-color="#ebebeb"/><stop offset="0.98" stop-color="#e5e5e5"/><stop offset="1" stop-color="#e9e8e8"/><stop offset="1" stop-color="#e9e8e8"/></linearGradient><linearGradient id="_ÂÁ_Ï_ÌÌ_È_ËÂÌÚ_8" x1="5600.33" y1="562.47" x2="5600.26" y2="561.4" gradientTransform="matrix(-0.99, -0.12, -0.12, 0.99, 6018.9, 157)" gradientUnits="userSpaceOnUse"><stop offset="0" stop-color="#010101"/><stop offset="1" stop-color="#b4b4b4"/></linearGradient><linearGradient id="_ÂÁ_Ï_ÌÌ_È_ËÂÌÚ_2" x1="224.37" y1="201.43" x2="374.54" y2="201.43" gradientUnits="userSpaceOnUse"><stop offset="0" stop-color="#f2f2f2"/><stop offset="0.02" stop-color="#f3f3f3"/><stop offset="0.97" stop-color="#f4f4f4"/><stop offset="0.99" stop-color="#f1f0f0"/><stop offset="1" stop-color="#e9e8e8"/></linearGradient><mask id="mask-2" x="26.13" y="378" width="275.5" height="35.43" maskUnits="userSpaceOnUse"><ellipse class="cls-2" cx="163.88" cy="395.71" rx="137.75" ry="17.72"/></mask></defs><g class="cls-4"><g id="Layer_1" data-name="Layer 1"><g class="cls-5"><g class="cls-6"><ellipse class="cls-7" cx="333.38" cy="373.51" rx="182.7" ry="23.5"/></g><path class="cls-8" d="M224.37,20.94a29.22,29.22,0,0,1,7.71-1l138.78-1.41A26,26,0,0,1,376,19l2.34.43s28.26,3.8,31.5,6.58L370.66,19.6Z"/><path class="cls-9" d="M409.85,26.05l-35.31-6.42a.77.77,0,0,0,.38-.08,15.26,15.26,0,0,1,3.91.18C388,21.05,408.22,24.77,409.85,26.05Z"/><polygon class="cls-10" points="374.54 383.35 409.85 366.19 409.85 26.05 374.54 19.51 374.54 383.35"/><polygon class="cls-11" points="374.54 383.35 224.37 377.48 224.37 20.86 374.54 19.51 374.54 383.35"/><polygon points="374.55 383.41 374.53 383.4 224.37 377.54 224.38 377.42 374.52 383.29 409.82 366.14 409.88 366.25 374.55 383.41"/><g class="cls-12"><ellipse class="cls-13" cx="163.88" cy="395.71" rx="137.75" ry="17.72"/></g><image width="4000" height="4541" transform="translate(0 45.49) scale(0.08)" xlink:href="../DPE_Website_Home/Links/Hydrate%20-%20Caffeine%20Hydrating%20A.png"/></g></g></g></svg>