<svg xmlns="http://www.w3.org/2000/svg" viewBox="0 0 51.23 51.25"><defs><style>.cls-1{fill:#fff;}</style></defs><g id="Layer_2" data-name="Layer 2"><g id="Footer"><path d="M51.23,24v3.1c0,.16-.07.32-.09.48-.14,1-.23,2-.42,3A25.57,25.57,0,0,1,30,50.85c-.93.16-1.87.27-2.81.4H24a2.62,2.62,0,0,0-.38-.09A25,25,0,0,1,17,49.74,25.61,25.61,0,1,1,38.45,3.48,24.89,24.89,0,0,1,50.84,21.26C51,22.17,51.1,23.1,51.23,24ZM27.32,22.44c0-1.21,0-2.32,0-3.44A1.67,1.67,0,0,1,29,17.22c.71-.06,1.43,0,2.14-.06.56,0,.79-.23.8-.8,0-.91,0-1.83,0-2.75,0-.56-.25-.79-.8-.79-1.05,0-2.11,0-3.15,0a5.24,5.24,0,0,0-5.3,4.76c-.17,1.39-.1,2.82-.13,4.24,0,.19,0,.39,0,.62H20c-.61,0-.85.24-.86.85v1.6c0,2.8-.32,2.44,2.44,2.46H22.6V28c0,3.22,0,6.44,0,9.66,0,.69.09.78.77.79h3.1c.73,0,.84-.11.84-.83V27.39l.55,0H30.6c.91,0,1-.11,1.13-1s.2-1.82.32-2.73S32,22.44,31,22.44Z"/><path class="cls-1" d="M27.32,22.44H31c1,0,1.18.21,1.06,1.18s-.23,1.82-.32,2.73-.22,1-1.13,1H27.85l-.55,0V37.61c0,.72-.11.83-.84.83h-3.1c-.68,0-.77-.1-.77-.79,0-3.22,0-6.44,0-9.66v-.63H21.55c-2.76,0-2.42.34-2.44-2.46V23.3c0-.61.25-.84.86-.85h2.62c0-.23,0-.43,0-.62,0-1.42,0-2.85.13-4.24A5.24,5.24,0,0,1,28,12.83c1,0,2.1,0,3.15,0,.55,0,.79.23.8.79,0,.92,0,1.84,0,2.75,0,.57-.24.78-.8.8-.71,0-1.43,0-2.14.06A1.67,1.67,0,0,0,27.32,19C27.29,20.12,27.32,21.23,27.32,22.44Z"/></g></g></svg>