<svg id="Layer_1" data-name="Layer 1" xmlns="http://www.w3.org/2000/svg" viewBox="0 0 73.42 73.42"><defs><style>.cls-1{fill:#fff;}.cls-2{fill:#f7bf6e;}</style></defs><circle class="cls-1" cx="36.71" cy="36.71" r="36.71"/><path class="cls-2" d="M34.56,29.41c.53-9,1.39-15.95,2.35-15.95s1.8,7,2.33,15.83c8.6-.21,18-.38,27.61-.5l1.48,0A32.43,32.43,0,0,0,5.08,30.71C10.67,30.21,21.4,29.77,34.56,29.41Z"/><path class="cls-2" d="M66.11,34.14c-9.31-.12-18.37-.29-26.64-.49.07,1.58.13,3.17.18,4.78h.18c13.34.36,24,.82,29.38,1.33.08-1,.13-1.94.13-2.93s0-1.78-.11-2.65l-1,0Z"/><path class="cls-2" d="M7.71,37.81c9.24.12,18.24.28,26.46.48q.07-2.41.18-4.77H34c-13.17-.36-23.75-.81-29.17-1.32a33.64,33.64,0,0,0-.33,4.63c0,.32,0,.63,0,.94H5.57Z"/><path class="cls-2" d="M39.76,42.52c0,2,.06,3.91.06,5.77,0,4.53-1.3,10.2-2.91,10.2S34,53.59,34,48.29c0-1.84,0-3.72.05-5.62-8.45.2-17.7.37-27.09.49l-1.84,0a32.42,32.42,0,0,0,63.91-2C63.62,41.71,52.93,42.16,39.76,42.52Z"/></svg>