<svg xmlns="http://www.w3.org/2000/svg" viewBox="0 0 73.42 73.42"><defs><style>.cls-1{fill:#fff;}.cls-2{fill:#76c6bc;}</style></defs><g id="Layer_2" data-name="Layer 2"><g id="Layer_1-2" data-name="Layer 1"><circle class="cls-1" cx="36.71" cy="36.71" r="36.71"/><path class="cls-2" d="M36.72,36.48c8.81,0,13.4,3.27,17.46,6.15,3.66,2.6,6.85,4.86,13.06,5.15a33.24,33.24,0,0,0,1.18-4.1c-8.66-.06-13.22-3.29-17.24-6.14s-7.31-5.19-14.46-5.19-10.53,2.4-14.45,5.19S13.69,43.62,5,43.68a31.55,31.55,0,0,0,1.17,4.1c6.22-.29,9.41-2.55,13.06-5.15C23.32,39.75,27.92,36.48,36.72,36.48Z"/><path class="cls-2" d="M4.34,38.54a2.5,2.5,0,0,1,.47,0c7.15,0,10.53-2.4,14.45-5.18s8.66-6.15,17.46-6.15,13.4,3.27,17.46,6.15,7.31,5.18,14.46,5.18a2.31,2.31,0,0,1,.46,0c0-.57,0-1.13,0-1.71,0-.84,0-1.68-.1-2.51a2.71,2.71,0,0,1-.4,0c-8.81,0-13.41-3.27-17.46-6.15S43.87,23,36.72,23s-10.53,2.41-14.45,5.19-8.66,6.15-17.46,6.15a2.58,2.58,0,0,1-.4,0c-.07.83-.11,1.67-.11,2.51C4.3,37.41,4.32,38,4.34,38.54Z"/><path class="cls-2" d="M19.26,24c4.06-2.88,8.66-6.14,17.46-6.14S50.12,21.1,54.18,24c3.84,2.73,7.18,5.09,14.05,5.18a32.43,32.43,0,0,0-63,0C12.09,29.07,15.42,26.71,19.26,24Z"/><path class="cls-2" d="M51.18,46.86c-3.92-2.79-7.31-5.19-14.46-5.19s-10.53,2.4-14.45,5.19C18.82,49.3,15,52,8.5,52.78a32.42,32.42,0,0,0,56.45,0C58.47,52,54.62,49.3,51.18,46.86Z"/></g></g></svg>