<svg xmlns="http://www.w3.org/2000/svg" viewBox="0 0 29.47 29.37"><defs><style>.cls-1{fill:#828282;}</style></defs><g id="Layer_2" data-name="Layer 2"><g id="About_Us" data-name="About Us"><path class="cls-1" d="M0,14.7c.09-2.45.09-4.89.29-7.31A7.63,7.63,0,0,1,7.49.2c3.19-.22,6.4-.2,9.6-.2a38.5,38.5,0,0,1,5.58.3,7.61,7.61,0,0,1,6.62,7,32,32,0,0,1,.18,3.24q0,5.19-.08,10.36a9.14,9.14,0,0,1-.84,3.78,7.36,7.36,0,0,1-6.47,4.44c-3.17.23-6.37.21-9.55.21a40.61,40.61,0,0,1-5.63-.29A7.55,7.55,0,0,1,.3,22C.1,19.59.09,17.13,0,14.7ZM14.77,2.58v.07c-1.1,0-2.2,0-3.3,0s-2.23.05-3.35.13C5,3,3,4.91,2.9,8c-.12,4.44-.12,8.9,0,13.34a5,5,0,0,0,5.23,5.21q6.65.18,13.29,0a5,5,0,0,0,5.25-5.24q.18-6.67,0-13.35a5.1,5.1,0,0,0-5.2-5.19C19.24,2.65,17,2.64,14.77,2.58Z"/><path class="cls-1" d="M22.33,14.68a7.55,7.55,0,1,1-7.52-7.54A7.54,7.54,0,0,1,22.33,14.68Zm-7.56,4.91a4.91,4.91,0,1,0-4.89-4.9A4.92,4.92,0,0,0,14.77,19.59Z"/><path class="cls-1" d="M24.4,6.88a1.76,1.76,0,0,1-3.52-.09,1.76,1.76,0,0,1,3.52.09Z"/></g></g></svg>