<svg xmlns="http://www.w3.org/2000/svg" viewBox="0 0 51.21 51.23"><defs><style>.cls-1{fill:#fff;}path{fill:#77c6bc;}</style></defs><g id="Layer_2" data-name="Layer 2"><g id="Footer"><path d="M27.19,51.23H24a2.57,2.57,0,0,0-.38-.08A24.71,24.71,0,0,1,8.85,45,25,25,0,0,1,.12,23,24.21,24.21,0,0,1,6.4,8.68,25,25,0,0,1,25.16,0a24.25,24.25,0,0,1,13.53,3.6A25.26,25.26,0,0,1,50.81,21.2c.18.93.27,1.87.4,2.81v3.2c-.05.33-.09.66-.13,1a25.66,25.66,0,0,1-21,22.63C29.11,51,28.15,51.1,27.19,51.23ZM10.8,25.63c.1,2.43.1,4.89.3,7.33a7.55,7.55,0,0,0,6.6,7,39.33,39.33,0,0,0,5.64.3c3.18,0,6.37,0,9.54-.21a7.4,7.4,0,0,0,6.47-4.44,9.06,9.06,0,0,0,.84-3.79q.08-5.17.09-10.35a31.83,31.83,0,0,0-.19-3.24,7.62,7.62,0,0,0-6.61-7,40,40,0,0,0-5.59-.29c-3.2,0-6.4,0-9.59.2a7.61,7.61,0,0,0-7.2,7.18C10.9,20.74,10.9,23.18,10.8,25.63Z"/><path class="cls-1" d="M10.8,25.63c.1-2.45.1-4.89.3-7.32a7.61,7.61,0,0,1,7.2-7.18c3.19-.22,6.39-.2,9.59-.2a40,40,0,0,1,5.59.29,7.62,7.62,0,0,1,6.61,7,31.83,31.83,0,0,1,.19,3.24q0,5.18-.09,10.35a9.06,9.06,0,0,1-.84,3.79,7.4,7.4,0,0,1-6.47,4.44c-3.17.22-6.36.21-9.54.21A39.33,39.33,0,0,1,17.7,40a7.55,7.55,0,0,1-6.6-7C10.9,30.52,10.9,28.06,10.8,25.63ZM25.58,13.51v.06c-1.1,0-2.2,0-3.3,0s-2.23,0-3.34.12c-3.11.22-5.14,2.13-5.22,5.24q-.18,6.68,0,13.35a5,5,0,0,0,5.22,5.21q6.65.18,13.3,0a5.06,5.06,0,0,0,5.25-5.24q.17-6.67,0-13.35a5.11,5.11,0,0,0-5.2-5.2C30,13.58,27.81,13.57,25.58,13.51Z"/><path d="M25.58,13.51c2.23.06,4.46.07,6.69.2a5.11,5.11,0,0,1,5.2,5.2q.18,6.68,0,13.35a5.06,5.06,0,0,1-5.25,5.24q-6.64.18-13.3,0a5,5,0,0,1-5.22-5.21q-.18-6.67,0-13.35c.08-3.11,2.11-5,5.22-5.24,1.11-.08,2.23-.1,3.34-.12s2.2,0,3.3,0Zm7.56,12.1a7.55,7.55,0,1,0-7.57,7.55A7.55,7.55,0,0,0,33.14,25.61Zm2.06-7.8a1.76,1.76,0,1,0-1.83,1.71A1.76,1.76,0,0,0,35.2,17.81Z"/><path class="cls-1" d="M33.14,25.61a7.55,7.55,0,1,1-7.53-7.55A7.54,7.54,0,0,1,33.14,25.61Zm-7.56,4.9a4.9,4.9,0,1,0-4.89-4.9A4.9,4.9,0,0,0,25.58,30.51Z"/><path class="cls-1" d="M35.2,17.81A1.76,1.76,0,1,1,33.51,16,1.75,1.75,0,0,1,35.2,17.81Z"/><path d="M25.58,30.51a4.9,4.9,0,1,1,4.91-4.87A4.91,4.91,0,0,1,25.58,30.51Z"/></g></g></svg>