<svg width="100" height="100" viewBox="0 0 100 100" fill="none" xmlns="http://www.w3.org/2000/svg">
<rect width="100" height="100" fill="white"/>
<path d="M85 35.65C85 31.0997 84.1076 26.594 82.3738 22.39C80.6401 18.1861 78.0988 14.3663 74.8952 11.1487C71.6916 7.9312 67.8883 5.3789 63.7026 3.63757C59.5168 1.89625 55.0306 1 50.5 1C45.9694 1 41.4832 1.89625 37.2974 3.63757C33.1117 5.3789 29.3084 7.9312 26.1048 11.1487C22.9012 14.3663 20.3599 18.1861 18.6262 22.39C16.8924 26.594 16 31.0997 16 35.65C16 42.5156 18.0158 48.9011 21.4461 54.2867H21.4066L50.5 100L79.5934 54.2867H79.5589C83.1117 48.7258 85.0003 42.2573 85 35.65ZM50.5 50.5C46.5786 50.5 42.8178 48.9355 40.0449 46.1505C37.2721 43.3656 35.7143 39.5885 35.7143 35.65C35.7143 31.7115 37.2721 27.9344 40.0449 25.1495C42.8178 22.3645 46.5786 20.8 50.5 20.8C54.4214 20.8 58.1822 22.3645 60.9551 25.1495C63.7279 27.9344 65.2857 31.7115 65.2857 35.65C65.2857 39.5885 63.7279 43.3656 60.9551 46.1505C58.1822 48.9355 54.4214 50.5 50.5 50.5Z" fill="#6FC6BE"/>
</svg>
