<svg width="69" height="99" viewBox="0 0 69 99" fill="none" xmlns="http://www.w3.org/2000/svg">
<path d="M69 34.65C69 30.0997 68.1076 25.5939 66.3738 21.39C64.6401 17.1861 62.0988 13.3663 58.8952 10.1487C55.6916 6.9312 51.8883 4.3789 47.7026 2.63757C43.5168 0.896248 39.0306 0 34.5 0C29.9694 0 25.4832 0.896248 21.2974 2.63757C17.1117 4.3789 13.3084 6.9312 10.1048 10.1487C6.90119 13.3663 4.35994 17.1861 2.62616 21.39C0.892368 25.5939 -6.75113e-08 30.0997 0 34.65C0 41.5156 2.01579 47.9012 5.44607 53.2868H5.40664L34.5 99L63.5934 53.2868H63.5589C67.1117 47.7258 69.0003 41.2573 69 34.65ZM34.5 49.5C30.5786 49.5 26.8178 47.9355 24.0449 45.1505C21.2721 42.3656 19.7143 38.5885 19.7143 34.65C19.7143 30.7115 21.2721 26.9344 24.0449 24.1495C26.8178 21.3645 30.5786 19.8 34.5 19.8C38.4214 19.8 42.1822 21.3645 44.9551 24.1495C47.7279 26.9344 49.2857 30.7115 49.2857 34.65C49.2857 38.5885 47.7279 42.3656 44.9551 45.1505C42.1822 47.9355 38.4214 49.5 34.5 49.5Z" fill="#6FC6BE"/>
</svg>
