<svg xmlns="http://www.w3.org/2000/svg" viewBox="0 0 144.98 105.53"><defs><style>.cls-1{fill:#fff;}</style></defs><g id="Layer_2" data-name="Layer 2"><g id="Footer"><path class="cls-1" d="M23.41,76A23.41,23.41,0,1,1,46.82,52.57,23.43,23.43,0,0,1,23.41,76m0-40.15A16.75,16.75,0,1,0,40.15,52.57,16.76,16.76,0,0,0,23.41,35.83"/><path class="cls-1" d="M73.27,76a23.41,23.41,0,1,1,23.4-23.41A23.43,23.43,0,0,1,73.27,76m0-40.15A16.75,16.75,0,1,0,90,52.57,16.76,16.76,0,0,0,73.27,35.83"/><path class="cls-1" d="M121.36,76A23.41,23.41,0,1,1,144.7,50.75l.28,3.59H121.33V47.67h16a16.74,16.74,0,1,0-16,21.65Z"/><rect class="cls-1" x="49.86" y="52.57" width="6.67" height="52.58"/><rect class="cls-1" x="40.15" width="6.67" height="52.58"/><rect class="cls-1" x="62.4" y="82.16" width="1.01" height="22.99"/><path class="cls-1" d="M104.08,104.25l0,.87h-.87a1.93,1.93,0,0,1-1.28-.66,4.36,4.36,0,0,1-.59-2.26A7,7,0,0,1,98,104.7a13.35,13.35,0,0,1-4.82.83,8.71,8.71,0,0,1-5-1.25,4,4,0,0,1-2-3.57q0-3.49,3.67-4.5a18.86,18.86,0,0,1,3.87-.56l4-.21c.32,0,.85-.08,1.59-.17,1.4-.33,2.11-1,2.11-2q0-4.16-6-4.16a9.35,9.35,0,0,0-4.6.9,4.92,4.92,0,0,0-2.25,3.37H87.51a5.82,5.82,0,0,1,2.56-4,10.2,10.2,0,0,1,5.38-1.18c4.58,0,6.86,1.6,6.86,4.79v8.67c0,1.73.47,2.6,1.39,2.6Zm-2.63-9c-.6.72-2.17,1.13-4.71,1.25l-3.35.17q-6.09.34-6.06,4.13a3.19,3.19,0,0,0,1.08,2.42,6.54,6.54,0,0,0,4.7,1.46,9.56,9.56,0,0,0,6.23-1.84,5.38,5.38,0,0,0,2.11-4.37Z"/><path class="cls-1" d="M135.22,105.53a10.87,10.87,0,0,1-4.82-1.07,7,7,0,0,1-3.54-3.57v4.26H126v-23h.83V92.77a7.09,7.09,0,0,1,3.82-3.67,11,11,0,0,1,4.54-1,8.56,8.56,0,0,1,6.49,2.53,8.71,8.71,0,0,1,2.32,6.2,8.42,8.42,0,0,1-2.43,6.28,8.67,8.67,0,0,1-6.38,2.39m0-16.5a8.56,8.56,0,0,0-6.1,2.11,7.49,7.49,0,0,0-2.26,5.72,7.32,7.32,0,0,0,2.31,5.6,8.41,8.41,0,0,0,6,2.17,7.5,7.5,0,0,0,8-7.77,7.83,7.83,0,0,0-1.81-5.23,7.58,7.58,0,0,0-6.17-2.6"/></g></g></svg>