<svg id="Layer_1" data-name="Layer 1" xmlns="http://www.w3.org/2000/svg" viewBox="0 0 73.42 73.42"><defs><style>.cls-1{fill:#fff;}.cls-2{fill:#71479c;}</style></defs><circle class="cls-1" cx="36.71" cy="36.71" r="36.71"/><path class="cls-2" d="M36.72,4.29A32.17,32.17,0,0,1,48.8,6.63,38.11,38.11,0,0,0,36.72,22.5,38,38,0,0,0,24.64,6.63,32.17,32.17,0,0,1,36.72,4.29ZM4.3,36.71a32.23,32.23,0,0,1,7.42-20.62,23,23,0,0,1,0,41.24A32.25,32.25,0,0,1,4.3,36.71ZM15.77,61.43a28.52,28.52,0,0,0,0-49.44A32.79,32.79,0,0,1,19.13,9.5a32.39,32.39,0,0,1,0,54.42A31.73,31.73,0,0,1,15.77,61.43Zm21,7.7a32.17,32.17,0,0,1-12.08-2.34A38.21,38.21,0,0,0,36.71,51a37.81,37.81,0,0,0,8.36,12.6,40.39,40.39,0,0,0,3.7,3.25A32.16,32.16,0,0,1,36.72,69.13Zm17.58-5.2A32.49,32.49,0,0,1,39.49,36.71,32.39,32.39,0,0,1,54.32,9.5,32.66,32.66,0,0,1,57.67,12a28.52,28.52,0,0,0,0,49.44A33,33,0,0,1,54.3,63.93ZM69.14,36.71a32.25,32.25,0,0,1-7.42,20.62,23,23,0,0,1,0-41.24A32.23,32.23,0,0,1,69.14,36.71Z"/></svg>