<svg xmlns="http://www.w3.org/2000/svg" viewBox="0 0 91.2 91.2"><defs><style>.cls-1{fill:#fff;}.cls-2{fill:#5985c5;}</style></defs><g id="Layer_2" data-name="Layer 2"><g id="Product_Header" data-name="Product Header"><circle class="cls-1" cx="45.6" cy="45.6" r="45.6"/><path class="cls-2" d="M45.6,5.32A40.28,40.28,0,1,0,85.87,45.6,40.29,40.29,0,0,0,45.6,5.32Zm.12,6h0l0,0Zm24,62.89c-.1.11-.34.08-.69-.06l.68-.55C69.79,73.92,69.8,74.13,69.7,74.23Z"/><path class="cls-1" d="M62.91,40a2.73,2.73,0,0,1-2-.93L46.09,22a.22.22,0,0,0-.17-.08.24.24,0,0,0-.18.08L30.3,39.08a2.72,2.72,0,1,1-4-3.65L41.71,18.37a5.66,5.66,0,0,1,8.48.08L65,35.48a2.71,2.71,0,0,1-2,4.49Z"/><path class="cls-1" d="M62.91,57.33a2.7,2.7,0,0,1-2-.93l-14.77-17a.22.22,0,0,0-.17-.08.19.19,0,0,0-.18.08L30.3,56.44a2.72,2.72,0,0,1-4-3.64L41.71,35.73a5.65,5.65,0,0,1,8.48.09L65,52.84a2.71,2.71,0,0,1-2,4.49Z"/><path class="cls-1" d="M62.91,74.69a2.7,2.7,0,0,1-2-.93l-14.77-17a.26.26,0,0,0-.17-.09.29.29,0,0,0-.18.08L30.3,73.8a2.72,2.72,0,0,1-4-3.64L41.71,53.09A5.74,5.74,0,0,1,46,51.22a5.66,5.66,0,0,1,4.22,2L65,70.2A2.71,2.71,0,0,1,64.69,74,2.68,2.68,0,0,1,62.91,74.69Z"/></g></g></svg>