<svg id="Layer_1" data-name="Layer 1" xmlns="http://www.w3.org/2000/svg" viewBox="0 0 64.84 64.84"><defs><style>.cls-1{fill:#5985c4;}.cls-2{fill:#fff;}</style></defs><path class="cls-1" d="M32.42,0A32.42,32.42,0,1,0,64.84,32.42,32.41,32.41,0,0,0,32.42,0Zm.1,4.84ZM51.83,55.47c-.09.09-.28.06-.56,0l.54-.44C51.9,55.22,51.91,55.39,51.83,55.47Z"/><path class="cls-2" d="M46.36,27.89a2.19,2.19,0,0,1-1.65-.75L32.82,13.43a.2.2,0,0,0-.14-.06c-.1,0-.13,0-.14.06L20.13,27.17a2.18,2.18,0,0,1-3.24-2.93h0L29.29,10.5a4.57,4.57,0,0,1,6.46-.31c.13.12.25.25.37.38L48,24.27a2.19,2.19,0,0,1-1.65,3.62Z"/><path class="cls-2" d="M46.36,41.87a2.18,2.18,0,0,1-1.65-.76L32.82,27.41a.19.19,0,0,0-.14-.07.13.13,0,0,0-.14.07L20.13,41.15a2.19,2.19,0,0,1-3.24-2.94l12.4-13.74a4.57,4.57,0,0,1,6.46-.31c.13.12.25.25.37.38L48,38.25a2.19,2.19,0,0,1-1.65,3.62Z"/><path class="cls-2" d="M46.36,55.84a2.17,2.17,0,0,1-1.65-.75L32.82,41.39a.17.17,0,0,0-.14-.07.2.2,0,0,0-.14.06L20.13,55.12a2.18,2.18,0,0,1-3.24-2.93h0l12.4-13.74a4.57,4.57,0,0,1,6.46-.31c.13.12.25.25.37.38L48,52.22a2.2,2.2,0,0,1-.22,3.09h0A2.15,2.15,0,0,1,46.36,55.84Z"/></svg>