<svg xmlns="http://www.w3.org/2000/svg" viewBox="0 0 39.68 41.04"><defs><style>.cls-1{fill:#63c4b4;}</style></defs><g id="Layer_2" data-name="Layer 2"><g id="Product_Details" data-name="Product Details"><g id="_1Q5rBK" data-name="1Q5rBK"><path class="cls-1" d="M19.86,0c.51,3.19.95,6.19,1.48,9.17,1,5.52,4.22,8.87,9.78,9.86,2.84.51,5.68,1,8.56,1.63-1.91.27-3.82.52-5.72.83-1.18.19-2.35.43-3.51.69-5.22,1.15-8.14,4.49-9.09,9.64-.55,3-1,6-1.5,9.22-.34-2.35-.65-4.56-1-6.76C17.53,25.69,14.54,22.73,6,21.5a52.84,52.84,0,0,1-6-1.09c1.9-.26,3.8-.5,5.69-.8,1.23-.2,2.44-.47,3.66-.73C15.66,17.57,18,13,18.82,7.24,19.17,4.88,19.49,2.53,19.86,0Z"/></g></g></g></svg>