<svg xmlns="http://www.w3.org/2000/svg" viewBox="0 0 51.23 51.25"><defs><style>.cls-1{fill:#ffffff;}</style></defs><g id="Layer_2" data-name="Layer 2"><g id="Footer"><path d="M27.21,51.25H24a2.34,2.34,0,0,0-.38-.09A25,25,0,0,1,17,49.74,25.61,25.61,0,1,1,38.45,3.48,24.93,24.93,0,0,1,50.84,21.26c.17.91.26,1.84.39,2.77v3.1c0,.16-.07.32-.09.48-.14,1-.23,2-.42,3A25.57,25.57,0,0,1,30,50.85C29.09,51,28.15,51.12,27.21,51.25ZM19.53,31.7A7.46,7.46,0,0,1,16.72,33c-1.1.23-2.24.28-3.36.44a.75.75,0,0,0-.51.34c0,.1.16.34.29.5a.87.87,0,0,0,.3.17A14.8,14.8,0,0,0,27,34.94c5.62-2.57,8.39-7.22,8.83-13.31a2.27,2.27,0,0,1,.78-1.73A16.43,16.43,0,0,0,38.24,18c.09-.11.06-.32.09-.48a1.63,1.63,0,0,0-.49,0c-.48.15-1,.33-1.38.48.39-.69.79-1.35,1.14-2,.08-.14,0-.36,0-.55a2.85,2.85,0,0,0-.51.08c-.72.29-1.44.6-2.16.91a1.12,1.12,0,0,1-1.23-.25A5.54,5.54,0,0,0,26,17a5.29,5.29,0,0,0-1.19,3.86c0,.37-.08.54-.47.48s-.69-.09-1-.16a14.36,14.36,0,0,1-8.47-4.91c-.41-.47-.54-.45-.81.09a5.47,5.47,0,0,0-.54,3.3,6.21,6.21,0,0,0,1.42,3.06,5.06,5.06,0,0,1-.88-.3c-.53-.24-.67-.16-.64.42A5.43,5.43,0,0,0,16,27.31l.46.31a3.77,3.77,0,0,1-.51,0c-.79-.08-.88,0-.57.75A5.64,5.64,0,0,0,19.53,31.7Z"/><path class="cls-1" d="M19.53,31.7a5.64,5.64,0,0,1-4.17-3.34c-.31-.72-.22-.83.57-.75a3.77,3.77,0,0,0,.51,0L16,27.31a5.43,5.43,0,0,1-2.61-4.48c0-.58.11-.66.64-.42a5.06,5.06,0,0,0,.88.3,6.21,6.21,0,0,1-1.42-3.06,5.47,5.47,0,0,1,.54-3.3c.27-.54.4-.56.81-.09a14.36,14.36,0,0,0,8.47,4.91c.35.07.7.1,1,.16s.49-.11.47-.48A5.29,5.29,0,0,1,26,17a5.54,5.54,0,0,1,7.71-.82,1.12,1.12,0,0,0,1.23.25c.72-.31,1.44-.62,2.16-.91a2.85,2.85,0,0,1,.51-.08c0,.19.08.41,0,.55-.35.69-.75,1.35-1.14,2,.42-.15.9-.33,1.38-.48a1.63,1.63,0,0,1,.49,0c0,.16,0,.37-.09.48a16.43,16.43,0,0,1-1.66,1.86,2.27,2.27,0,0,0-.78,1.73c-.44,6.09-3.21,10.74-8.83,13.31a14.8,14.8,0,0,1-13.53-.49.87.87,0,0,1-.3-.17c-.13-.16-.34-.4-.29-.5a.75.75,0,0,1,.51-.34c1.12-.16,2.26-.21,3.36-.44A7.46,7.46,0,0,0,19.53,31.7Z"/></g></g></svg>