<svg xmlns="http://www.w3.org/2000/svg" viewBox="0 0 51.23 51.26"><defs><style>.cls-1{fill:#fff;}</style></defs><g id="Layer_2" data-name="Layer 2"><g id="Footer"><path d="M27.22,51.26H24a1.32,1.32,0,0,0-.33-.08,23.24,23.24,0,0,1-6.34-1.31Q3.38,44.7.41,30.1c-.2-.94-.28-1.9-.41-2.86V24c0-.14.07-.29.09-.43.17-1.15.27-2.32.52-3.46A25.61,25.61,0,1,1,30,50.87C29.1,51,28.16,51.13,27.22,51.26ZM25.54,35.11v-.17c1.11,0,2.23,0,3.35,0,.66,0,1.33,0,2-.1a35.55,35.55,0,0,0,3.72-.41A4,4,0,0,0,38,30.8,32.36,32.36,0,0,0,37.94,20a3.41,3.41,0,0,0-1.17-2.08A5.09,5.09,0,0,0,34,16.73a78.35,78.35,0,0,0-13.44-.27,25.67,25.67,0,0,0-3.92.41,4,4,0,0,0-3.41,3.44,33.69,33.69,0,0,0,0,10.7,3.67,3.67,0,0,0,1.09,2.24,4.72,4.72,0,0,0,2.81,1.29C20,34.76,22.75,34.92,25.54,35.11Z"/><path class="cls-1" d="M25.54,35.11c-2.79-.19-5.59-.35-8.38-.57a4.72,4.72,0,0,1-2.81-1.29A3.67,3.67,0,0,1,13.26,31a33.69,33.69,0,0,1,0-10.7,4,4,0,0,1,3.41-3.44,25.67,25.67,0,0,1,3.92-.41A78.35,78.35,0,0,1,34,16.73a5.09,5.09,0,0,1,2.76,1.19A3.41,3.41,0,0,1,37.94,20,32.36,32.36,0,0,1,38,30.8a4,4,0,0,1-3.39,3.62,35.55,35.55,0,0,1-3.72.41c-.67.06-1.34.09-2,.1-1.12,0-2.24,0-3.35,0ZM22.59,20.76v9.78l8-4.9Z"/><path d="M22.59,20.76l8,4.88-8,4.9Z"/></g></g></svg>